/* XPM */
static char * player_xpm[] = {
"32 32 2 1",
" 	c #FFFFFF",
".	c #252B43",
"                                ",
"                                ",
"                                ",
"                                ",
"                                ",
"                                ",
"                                ",
"       .                .       ",
"      .                  .      ",
"      .                  .      ",
"     .                    .     ",
"     .                    .     ",
"     .                    .     ",
"     .                    .     ",
"     . ....... .. ....... .     ",
"     ..........  ..........     ",
"     ......................     ",
"     ..........  ..........     ",
"     ..........  ..........     ",
"     ..........  ..........     ",
"      ........    ........      ",
"      .......      .......      ",
"       ....          ....       ",
"                                ",
"                                ",
"                                ",
"                                ",
"                                ",
"                                ",
"                                ",
"                                ",
"                                "};
