/* XPM */
static char *result[] = {
/* columns rows colors chars-per-pixel */
"32 32 187 2 ",
"   c #78350C",
".  c #79350C",
"X  c #7A350C",
"o  c #7B350C",
"O  c #7C350C",
"+  c #7D350C",
"@  c #7E350C",
"#  c #7F350C",
"$  c #80350C",
"%  c #81350C",
"&  c #82350D",
"*  c #83350D",
"=  c #84350D",
"-  c #85350D",
";  c #86350D",
":  c #87350D",
">  c #89300B",
",  c #8A300B",
"<  c #8A300C",
"1  c #8A310C",
"2  c #8A320C",
"3  c #8A320D",
"4  c #8B320D",
"5  c #8B330D",
"6  c #8B340D",
"7  c #88360D",
"8  c #89360D",
"9  c #8A360D",
"0  c #8B360D",
"q  c #8C350D",
"w  c #8C360D",
"e  c #8D360D",
"r  c #8E360D",
"t  c #8F360D",
"y  c #8C350E",
"u  c #8D350E",
"i  c #8D360E",
"p  c #8D370E",
"a  c #8D370F",
"s  c #8E370F",
"d  c #8F390D",
"f  c #8E380F",
"g  c #91330C",
"h  c #90360D",
"j  c #91360D",
"k  c #92360D",
"l  c #93360D",
"z  c #94360D",
"x  c #95360D",
"c  c #96360D",
"v  c #97360D",
"b  c #98360D",
"n  c #99360D",
"m  c #99370D",
"M  c #9A370D",
"N  c #9B370D",
"B  c #90390D",
"V  c #8E3910",
"C  c #8F3910",
"Z  c #8F3A10",
"A  c #8F3B10",
"S  c #8F3B11",
"D  c #903C11",
"F  c #903D11",
"G  c #913D12",
"H  c #923E12",
"J  c #923F12",
"K  c #924012",
"L  c #924113",
"P  c #934113",
"I  c #934114",
"U  c #944114",
"Y  c #944314",
"T  c #944315",
"R  c #954415",
"E  c #954515",
"W  c #954615",
"Q  c #964615",
"!  c #964716",
"~  c #964816",
"^  c #974817",
"/  c #974917",
"(  c #B0400F",
")  c #C14410",
"_  c #C24410",
"`  c #C24411",
"'  c #C24511",
"]  c #C24611",
"[  c #C34711",
"{  c #C44712",
"}  c #C44812",
"|  c #C44813",
" . c #C44913",
".. c #C54913",
"X. c #C54A13",
"o. c #C54B14",
"O. c #C64C14",
"+. c #C74D15",
"@. c #C74E15",
"#. c #C84E15",
"$. c #C84F15",
"%. c #C85015",
"&. c #C85016",
"*. c #C95016",
"=. c #C95116",
"-. c #C95216",
";. c #CA5217",
":. c #CA5317",
">. c #CA5318",
",. c #CA5418",
"<. c #CB5518",
"1. c #CB5618",
"2. c #CB5619",
"3. c #CC5619",
"4. c #CC5719",
"5. c #CD5719",
"6. c #CD591A",
"7. c #CE5A1A",
"8. c #CE5B1B",
"9. c #CF5B1B",
"0. c #CF5C1C",
"q. c #D05C1C",
"w. c #D05D1C",
"e. c #D15E1C",
"r. c #D15F1D",
"t. c #D2601D",
"y. c #D2621E",
"u. c #D3631E",
"i. c #D3631F",
"p. c #D4641F",
"a. c #D4651F",
"s. c #D56520",
"d. c #D56620",
"f. c #D56721",
"g. c #D66721",
"h. c #D66822",
"j. c #D66922",
"k. c #D66923",
"l. c #CD673D",
"z. c #CD683E",
"x. c #CD693E",
"c. c #CE6A3E",
"v. c #CE6A3F",
"b. c #CF6A3F",
"n. c #CF6B3F",
"m. c #D06C3F",
"M. c #D06D3F",
"N. c #CE6C43",
"B. c #D06D40",
"V. c #D16D40",
"C. c #D16E40",
"Z. c #D16F40",
"A. c #D26F41",
"S. c #D27141",
"D. c #D27142",
"F. c #D37142",
"G. c #D37242",
"H. c #D37342",
"J. c #D47343",
"K. c #D47443",
"L. c #D57543",
"P. c #D57644",
"I. c #D67644",
"U. c #D67744",
"Y. c #D77845",
"T. c #D77945",
"R. c #D87A46",
"E. c #D87B47",
"W. c #D97B47",
"Q. c #DA7C48",
"!. c #DA7D48",
"~. c #DA7E48",
"^. c #DA7F48",
"/. c #DA8048",
"(. c #DB8048",
"). c #DB8049",
"_. c #DC8149",
"`. c #DC8249",
"'. c #DD834A",
"]. c #DE844C",
"[. c #DE854C",
"{. c #DE864D",
"}. c #DF864D",
"|. c #DF874D",
" X c #DF884F",
".X c #DF8850",
"XX c None",
/* pixels */
"XXXXXXXXXXXXXXXXXXXXXXXXXXXXXXXXXXXXXXXXXXXXXXXXXXXXXXXXXXXXXXXX",
"XXXXXXXXXXXXXXXXXXXXXXXXXXXXXXXXXXXXXXXXXXXXXXXXXXXXXXXXXXXXXXXX",
"XXXXXX# # # # # # # # # # # # # # # # # # # # # # # # # # XXXXXX",
"XXXXXXd ) ) ) ) ) ) g ) ) ) ) ) g ) ) ) ) ) g ) ) ) ) ) B XXXXXX",
"XXXX# ( N.N.N.N.N.g N.N.N.N.N.N.g N.N.N.N.N.N.g N.N.N.N.( # XXXX",
"XXXXN M M m n b b v v c x x z l l k j h h t r e w 0 0 9 8 7 XXXX",
"XXXXM .X X|.{.[.]./ '.`._.(./.~.T Q.W.E.R.T.Y.H U.P.L.K.J.: XXXX",
"XXXXM }.k.j.h.f.s.! ).u.y.t.r.e.U E.9.7.6.5.3.F L.>.;.-.=.; XXXX",
"XXXXm ].g.d.a.p.i.Q ^.t.r.e.q.0.L T.6.5.3.1.<.S J.=.=.&.$.; XXXX",
"XXXXn ^ ~ ! Q Q E R T Y I P K J H H G D D S Z C C V s a p - XXXX",
"XXXXb _.(.W ~.!.Q.W.E.R.K Y.U.U.P.L.K.S J.G.F.S.A.A.p C.B.= XXXX",
"XXXXb y.t.T Q.w.0.9.7.6.H I.2.<.>.:.-.C D.$.#.+.O.O.y m...* XXXX",
"XXXXv r.e.U E.8.7.6.5.3.F L.>.;.=.=.&.f A.+.O.O.o.X.6 n.} & XXXX",
"XXXXv I P K J H H G D D S Z C C V f a p i u q q 6 5 5 3 2 & XXXX",
"XXXXc T.Y.U.U.I.D K.J.J.G.F.S.s A.Z.C.B.M.m.6 b.b.v.x.z.z.% XXXX",
"XXXXx 5.4.2.<.,.A H.=.*.$.#.+.p C.o.X... .| 4 c.] ' ' ` ) $ XXXX",
"XXXXx 1.<.>.;.-.C D.$.@.+.O.O.y m... .} { [ 2 z.' _ ) ) ) # XXXX",
"XXXXz S Z C C V f a p i u q q 6 5 5 3 2 2 1 1 , > > > > > # XXXX",
"XXXXl G.F.S.s A.Z.C.V.M.m.6 b.b.v.c.z.z.< l.l.l.l.l.l.> l.@ XXXX",
"XXXXl %.#.+.p C.o.X... .| 5 c.] ' ' ` ) > l.) ) ) ) ) > l.+ XXXX",
"XXXXk +.O.O.y m... .| { [ 2 z.' ` ) ) ) > l.) ) ) ) ) > l.+ XXXX",
"XXXXj i y q 6 6 5 4 2 2 1 1 , > > > > > > > > > > > > > > O XXXX",
"XXXXh m.n.b.b.v.c.2 z.z.l.l.l.l.> l.l.l.l.l.l.> l.l.l.l.l.o XXXX",
"XXXXh | } [ ] ' ' < l.) ) ) ) ) > l.) ) ) ) ) > l.) ) ) ) o XXXX",
"XXXXt [ ] ' ' ` ) > l.) ) ) ) ) > l.) ) ) ) ) > l.) ) ) ) X XXXX",
"XXXXr 1 1 , > > > > > > > > > > > > > > > > > > > > > > > X XXXX",
"XXXXe l.l.> l.l.l.l.l.l.> l.l.l.l.l.l.> l.l.l.l.l.l.> l.l.. XXXX",
"XXXXw ) ) > l.) ) ) ) ) > l.) ) ) ) ) > l.) ) ) ) ) > l.) . XXXX",
"XXXX0 ) ) > l.) ) ) ) ) > l.) ) ) ) ) > l.) ) ) ) ) > l.)   XXXX",
"XXXX0 9 8 7 : ; ; - = * & & % $ # # @ + + O o o X X . .     XXXX",
"XXXXXXXXXXXXXXXXXXXXXXXXXXXXXXXXXXXXXXXXXXXXXXXXXXXXXXXXXXXXXXXX",
"XXXXXXXXXXXXXXXXXXXXXXXXXXXXXXXXXXXXXXXXXXXXXXXXXXXXXXXXXXXXXXXX"
};
